<?xml version="1.0" ?>
<svg height="120" version="1.1" width="120" xmlns="http://www.w3.org/2000/svg" xmlns:svg="http://www.w3.org/2000/svg">
	<style type="text/css">
		

.pie-label-left, .pie-label-right { display: none;}





.slice-10 { fill: #385a2a; stroke: #d6d9db; stroke-width:2;}

.slice-9 { fill: #66903d; stroke: #d6d9db; stroke-width:2;}

.slice-8 { fill: #c1d69f; stroke: #d6d9db; stroke-width:2;}

.slice-7 { fill: #79bcab; stroke: #d6d9db; stroke-width:2;}

.slice-6 { fill: #c2e0d5; stroke: #d6d9db; stroke-width:2;}

.slice-5 { fill: #e9ece3; stroke: #d6d9db; stroke-width:2; }

.slice-4 { fill: #bad9e0; stroke: #d6d9db; stroke-width:2;}

.slice-3 { fill: #669eb3; stroke: #d6d9db; stroke-width:2;}

.slice-2 { fill: #2b5b8e; stroke: #d6d9db; stroke-width:2;}

.slice-1{ fill: #072744; stroke: #d6d9db; stroke-width:2;}



	</style>
	<rect fill="white" height="120" width="120" x="0" y="0"/>
	<text class="pie-label-right" x="123" y="58">
		<tspan dy="0" x="123.962486565">
			1.2% - Petroleum
		</tspan>
	</text>
	<path class="slice-1" d="M 60,60  l 57,0  a57,57 0 0,0 -0.150004362193,-4.13255320369 z"/>
	<text class="pie-label-left" x="53" y="-6">
		<tspan dy="0" x="53.6348285414">
			51.3% - Coal
		</tspan>
	</text>
	<path class="slice-2" d="M 60,60  l 56.8499956378,-4.13255320369  a57,57 0 1,0 -113.199328137,12.7204939846 z"/>
	<text class="pie-label-left" x="8" y="106">
		<tspan dy="0" x="8.89115519787">
			17.0% - Natural Gas
		</tspan>
	</text>
	<path class="slice-3" d="M 60,60  l -56.3493324995,8.58794078089  a57,57 0 0,0 36.7931023619,44.9522671268 z"/>
	<text class="pie-label-right" x="77" y="124">
		<tspan dy="0" x="77.5162337629">
			21.1% - Nuclear
		</tspan>
	</text>
	<path class="slice-4" d="M 60,60  l -19.5562301377,53.5402079077  a57,57 0 0,0 66.7326877853,-21.5498680562 z"/>
	<text class="pie-label-right" x="121" y="87">
		<tspan dy="0" x="121.33984579">
			9.2% - Renewable
		</tspan>
	</text>
	<path class="slice-5" d="M 60,60  l 47.1764576477,31.9903398516  a57,57 0 0,0 9.81476108138,-30.9898460841 z"/>
	<text class="pie-label-right" x="123" y="60">
		<tspan dy="0" x="123.99780464">
			0.3% - Imports
		</tspan>
	</text>
	<path class="slice-6" d="M 60,60  l 56.991218729,1.00049376746  a57,57 0 0,0 0.00878127096001,-1.00049376746 z"/>
</svg>
