<?xml version="1.0" ?>
<svg height="350" version="1.1" width="500" xmlns="http://www.w3.org/2000/svg" xmlns:svg="http://www.w3.org/2000/svg">
	<style type="text/css">
		

.x-axis-path, .y-gridline, .x-notch { fill:none; stroke: #a7a9ac; stroke-width:1; }



.y-gridline { stroke-width: 1; }

.y-axis-path, .y-axis-path2, .x-notch-left, .x-notch-right { display: none;}



.x-axis-label, .data-point-label {font-size: 12px; font-weight:normal; font-family: sans-serif; fill: #58595b; text-anchor:middle;}

.y-axis-label {font-size: 12px; font-family: helvetica; fill: #a7a9ac; text-anchor:end;}



.series-1-line { fill: none; stroke: #bf5004; stroke-width:2; }



.series-2-line { fill: none; stroke: #336699; stroke-width: 2;}

	</style>
	<rect fill="white" height="350" width="500" x="0" y="0"/>
	<g id="grid" transform="translate(40, 40)">
		<g class="x-axis" id="x_axis">
			<path class="x-axis-path" d="M 0 255 L 420 255"/>
			<path class="x-notch-left" d="M 0 255, L 0 265"/>
			<path class="x-notch-right" d="M 420 255, L 420 265"/>
		</g>
		<g class="y-axis" id="y_axis">
			<path class="y-axis-path" d="M 0 255 L 0 0"/>
			<path class="y-axis-path-2" d="M 420 255 L 420 0"/>
			<path class="y-gridline" d="M 0 0 L 420 0"/>
			<text class="y-axis-label" x="-5" y="0">
				1.5
			</text>
			<path class="y-gridline" d="M 0 42 L 420 42"/>
			<text class="y-axis-label" x="-5" y="42">
				1.2
			</text>
			<path class="y-gridline" d="M 0 84 L 420 84"/>
			<text class="y-axis-label" x="-5" y="84">
				968
			</text>
			<path class="y-gridline" d="M 0 126 L 420 126"/>
			<text class="y-axis-label" x="-5" y="126">
				726
			</text>
			<path class="y-gridline" d="M 0 168 L 420 168"/>
			<text class="y-axis-label" x="-5" y="168">
				484
			</text>
			<path class="y-gridline" d="M 0 210 L 420 210"/>
			<text class="y-axis-label" x="-5" y="210">
				242
			</text>
		</g>
		<g>
			<path class="series-1-line" d="M 35 211.095041322 L 55 208.460743802 L 76 195.289256198 L 96 211.095041322 L 117 147.871900826 L 137 142.603305785 L 158 23.1818181818 L 179 151.384297521 L 199 121.52892562 L 220 116.260330579 L 240 93.4297520661 L 261 195.289256198 L 282 147.871900826 L 302 137.334710744 L 323 89.9173553719 L 343 56.5495867769 L 364 51.2809917355 L 385 46.0123966942"/>
		</g>
		<text class="x-axis-label" x="35.0" y="270">
			1998
		</text>
		<path class="x-notch" d="M 55.5882352941 255 L 55.5882352941 260"/>
		<text class="x-axis-label" x="76.1764705882" y="270">
			2000
		</text>
		<path class="x-notch" d="M 96.7647058824 255 L 96.7647058824 260"/>
		<text class="x-axis-label" x="117.352941176" y="270">
			2002
		</text>
		<path class="x-notch" d="M 137.941176471 255 L 137.941176471 260"/>
		<text class="x-axis-label" x="158.529411765" y="270">
			2004
		</text>
		<path class="x-notch" d="M 179.117647059 255 L 179.117647059 260"/>
		<text class="x-axis-label" x="199.705882353" y="270">
			2006
		</text>
		<path class="x-notch" d="M 220.294117647 255 L 220.294117647 260"/>
		<text class="x-axis-label" x="240.882352941" y="270">
			2008
		</text>
		<path class="x-notch" d="M 261.470588235 255 L 261.470588235 260"/>
		<text class="x-axis-label" x="282.058823529" y="270">
			2010
		</text>
		<path class="x-notch" d="M 302.647058824 255 L 302.647058824 260"/>
		<text class="x-axis-label" x="323.235294118" y="270">
			2012
		</text>
		<path class="x-notch" d="M 343.823529412 255 L 343.823529412 260"/>
		<text class="x-axis-label" x="364.411764706" y="270">
			2014
		</text>
		<path class="x-notch" d="M 385.0 255 L 385.0 260"/>
	</g>
</svg>
