<?xml version="1.0" ?>
<svg height="120" version="1.1" width="120" xmlns="http://www.w3.org/2000/svg" xmlns:svg="http://www.w3.org/2000/svg">
	<style type="text/css">
		.slice-10 { fill: #385a2a; stroke: #d6d9db; stroke-width:2;}

.slice-9 { fill: #66903d; stroke: #d6d9db; stroke-width:2;}

.slice-8 { fill: #c1d69f; stroke: #d6d9db; stroke-width:2;}

.slice-7 { fill: #79bcab; stroke: #d6d9db; stroke-width:2;}

.slice-6 { fill: #c2e0d5; stroke: #d6d9db; stroke-width:2;}

.slice-5 { fill: #e9ece3; stroke: #d6d9db; stroke-width:2; }

.slice-4 { fill: #bad9e0; stroke: #d6d9db; stroke-width:2;}

.slice-3 { fill: #669eb3; stroke: #d6d9db; stroke-width:2;}

.slice-2 { fill: #2b5b8e; stroke: #d6d9db; stroke-width:2;}

.slice-1{ fill: #072744; stroke: #d6d9db; stroke-width:2;}



.pie-label-right {font-family: sans-serif; font-size: 12px; font-weight: bold; fill: #58595b; text-anchor:start;}

.pie-label-left {font-family:sans-serif; font-size: 12px; font-weight: bold; fill: #58595b; text-anchor:end;}







	</style>
	<rect fill="white" height="120" width="120" x="0" y="0"/>
	<text class="pie-label-left" x="-3" y="51">
		<tspan dy="0" x="-3.17463368045">
			94.6%
		</tspan>
	</text>
	<path class="slice-1" d="M 60,60  l 57,0  a57,57 0 1,0 -3.27756248657,19.0499267089 z"/>
	<text class="pie-label-right" x="120" y="89">
		<tspan dy="0" x="120.722437513">
			0% -  
		</tspan>
	</text>
	<path class="slice-2" d="M 60,60  l 53.7224375134,19.0499267089  a57,57 0 0,0 0.0,-0.0 z"/>
	<text class="pie-label-right" x="122" y="84">
		<tspan dy="0" x="122.019580106">
			2.4%
		</tspan>
	</text>
	<path class="slice-3" d="M 60,60  l 53.7224375134,19.0499267089  a57,57 0 0,0 2.27337589258,-8.39774941977 z"/>
	<text class="pie-label-right" x="122" y="70">
		<tspan dy="0" x="122.995813406">
			0% -  
		</tspan>
	</text>
	<path class="slice-4" d="M 60,60  l 55.995813406,10.6521772891  a57,57 0 0,0 0.0,-0.0 z"/>
	<text class="pie-label-right" x="123" y="65">
		<tspan dy="0" x="123.748398057">
			3.0%
		</tspan>
	</text>
	<path class="slice-5" d="M 60,60  l 55.995813406,10.6521772891  a57,57 0 0,0 1.00418659399,-10.6521772891 z"/>
</svg>
