<?xml version="1.0" ?>
<svg height="350" version="1.1" width="500" xmlns="http://www.w3.org/2000/svg" xmlns:svg="http://www.w3.org/2000/svg">
	<style type="text/css">
		

.x-axis-path, .y-gridline, .x-notch { fill:none; stroke: #a7a9ac; stroke-width:1; }



.y-gridline { stroke-width: 1; }

.y-axis-path, .y-axis-path2, .x-notch-left, .x-notch-right { display: none;}



.x-axis-label, .data-point-label {font-size: 12px; font-weight:normal; font-family: sans-serif; fill: #58595b; text-anchor:middle;}

.y-axis-label {font-size: 12px; font-family: helvetica; fill: #a7a9ac; text-anchor:end;}



.series-1-line { fill: none; stroke: #bf5004; stroke-width:2; }



.series-2-line { fill: none; stroke: #336699; stroke-width: 2;}

	</style>
	<rect fill="white" height="350" width="500" x="0" y="0"/>
	<g id="grid" transform="translate(40, 40)">
		<g class="x-axis" id="x_axis">
			<path class="x-axis-path" d="M 0 255 L 420 255"/>
			<path class="x-notch-left" d="M 0 255, L 0 265"/>
			<path class="x-notch-right" d="M 420 255, L 420 265"/>
		</g>
		<g class="y-axis" id="y_axis">
			<path class="y-axis-path" d="M 0 255 L 0 0"/>
			<path class="y-axis-path-2" d="M 420 255 L 420 0"/>
			<path class="y-gridline" d="M 0 0 L 420 0"/>
			<text class="y-axis-label" x="-5" y="0">
				17.6
			</text>
			<path class="y-gridline" d="M 0 42 L 420 42"/>
			<text class="y-axis-label" x="-5" y="42">
				14.6
			</text>
			<path class="y-gridline" d="M 0 84 L 420 84"/>
			<text class="y-axis-label" x="-5" y="84">
				11.7
			</text>
			<path class="y-gridline" d="M 0 126 L 420 126"/>
			<text class="y-axis-label" x="-5" y="126">
				8.8
			</text>
			<path class="y-gridline" d="M 0 168 L 420 168"/>
			<text class="y-axis-label" x="-5" y="168">
				5.9
			</text>
			<path class="y-gridline" d="M 0 210 L 420 210"/>
			<text class="y-axis-label" x="-5" y="210">
				2.9
			</text>
		</g>
		<g>
			<path class="series-1-line" d="M 35 253.040359765 L 55 252.604884158 L 76 253.112939033 L 96 252.822621962 L 117 251.951670746 L 137 249.629134172 L 158 248.758182957 L 179 243.242158593 L 199 238.016451301 L 220 239.758353731 L 240 248.758182957 L 261 248.758182957 L 282 244.258268344 L 302 243.532475665 L 323 240.484146411 L 343 239.46803666 L 364 239.613195196 L 385 239.613195196"/>
			<path class="series-2-line" d="M 35 254.782262196 L 55 254.782262196 L 76 254.709682928 L 96 254.564524392 L 117 254.564524392 L 137 254.564524392 L 158 254.564524392 L 179 254.419365856 L 199 252.822621962 L 220 250.354926851 L 240 247.016280526 L 261 232.935902545 L 282 183.872317413 L 302 51.3425741447 L 323 23.1818181818 L 343 115.647805544 L 364 191.856036887 L 385 216.532987989"/>
			<path class="series-3-line" d="M 35 253.911310981 L 55 253.766152445 L 76 254.129048785 L 96 254.274207321 L 117 253.983890249 L 137 253.983890249 L 158 253.983890249 L 179 252.822621962 L 199 245.274378095 L 220 239.613195196 L 240 237.871292765 L 261 237.871292765 L 282 215.08140263 L 302 222.629646496 L 323 246.000170775 L 343 244.548585416 L 364 244.258268344 L 385 242.951841521"/>
			<path class="series-4-line" d="M 35 239.177719588 L 55 236.056811066 L 76 234.387487903 L 96 235.839073262 L 117 219.726475778 L 137 222.339329424 L 158 215.662036773 L 179 205.210622189 L 199 187.501280811 L 220 187.791597882 L 240 208.258951443 L 261 208.549268515 L 282 190.114134457 L 302 201.001024648 L 323 202.597768543 L 343 204.629988046 L 364 222.774805032 L 385 236.419707406"/>
		</g>
		<text class="x-axis-label" x="35.0" y="270">
			1998
		</text>
		<path class="x-notch" d="M 55.5882352941 255 L 55.5882352941 260"/>
		<text class="x-axis-label" x="76.1764705882" y="270">
			2000
		</text>
		<path class="x-notch" d="M 96.7647058824 255 L 96.7647058824 260"/>
		<text class="x-axis-label" x="117.352941176" y="270">
			2002
		</text>
		<path class="x-notch" d="M 137.941176471 255 L 137.941176471 260"/>
		<text class="x-axis-label" x="158.529411765" y="270">
			2004
		</text>
		<path class="x-notch" d="M 179.117647059 255 L 179.117647059 260"/>
		<text class="x-axis-label" x="199.705882353" y="270">
			2006
		</text>
		<path class="x-notch" d="M 220.294117647 255 L 220.294117647 260"/>
		<text class="x-axis-label" x="240.882352941" y="270">
			2008
		</text>
		<path class="x-notch" d="M 261.470588235 255 L 261.470588235 260"/>
		<text class="x-axis-label" x="282.058823529" y="270">
			2010
		</text>
		<path class="x-notch" d="M 302.647058824 255 L 302.647058824 260"/>
		<text class="x-axis-label" x="323.235294118" y="270">
			2012
		</text>
		<path class="x-notch" d="M 343.823529412 255 L 343.823529412 260"/>
		<text class="x-axis-label" x="364.411764706" y="270">
			2014
		</text>
		<path class="x-notch" d="M 385.0 255 L 385.0 260"/>
	</g>
</svg>
