<?xml version="1.0" ?>
<svg height="120" version="1.1" width="120" xmlns="http://www.w3.org/2000/svg" xmlns:svg="http://www.w3.org/2000/svg">
	<style type="text/css">
		.slice-10 { fill: #385a2a; stroke: #d6d9db; stroke-width:2;}

.slice-9 { fill: #66903d; stroke: #d6d9db; stroke-width:2;}

.slice-8 { fill: #c1d69f; stroke: #d6d9db; stroke-width:2;}

.slice-7 { fill: #79bcab; stroke: #d6d9db; stroke-width:2;}

.slice-6 { fill: #c2e0d5; stroke: #d6d9db; stroke-width:2;}

.slice-5 { fill: #e9ece3; stroke: #d6d9db; stroke-width:2; }

.slice-4 { fill: #bad9e0; stroke: #d6d9db; stroke-width:2;}

.slice-3 { fill: #669eb3; stroke: #d6d9db; stroke-width:2;}

.slice-2 { fill: #2b5b8e; stroke: #d6d9db; stroke-width:2;}

.slice-1{ fill: #072744; stroke: #d6d9db; stroke-width:2;}



.pie-label-right {font-family: sans-serif; font-size: 12px; font-weight: bold; fill: #58595b; text-anchor:start;}

.pie-label-left {font-family:sans-serif; font-size: 12px; font-weight: bold; fill: #58595b; text-anchor:end;}







	</style>
	<rect fill="white" height="120" width="120" x="0" y="0"/>
	<text class="pie-label-right" x="74" y="-5">
		<tspan dy="0" x="74.838602964">
			41.6%
		</tspan>
	</text>
	<path class="slice-1" d="M 60,60  l 57,0  a57,57 0 0,0 -106.274240775,-28.6539560285 z"/>
	<text class="pie-label-left" x="-2" y="37">
		<tspan dy="0" x="-2.27655682861">
			8.9%
		</tspan>
	</text>
	<path class="slice-2" d="M 60,60  l -49.2742407746,-28.6539560285  a57,57 0 0,0 -7.69348561085,30.5718065094 z"/>
	<text class="pie-label-left" x="43" y="124">
		<tspan dy="0" x="43.359577509">
			39.5%
		</tspan>
	</text>
	<path class="slice-3" d="M 60,60  l -56.9677263855,1.9178504809  a57,57 0 0,0 103.154032714,31.4861179614 z"/>
	<text class="pie-label-right" x="113" y="103">
		<tspan dy="0" x="113.186306329">
			0% -  
		</tspan>
	</text>
	<path class="slice-4" d="M 60,60  l 46.1863063289,33.4039684423  a57,57 0 0,0 0.0,-0.0 z"/>
	<text class="pie-label-right" x="121" y="87">
		<tspan dy="0" x="121.229233172">
			10.0%
		</tspan>
	</text>
	<path class="slice-5" d="M 60,60  l 46.1863063289,33.4039684423  a57,57 0 0,0 10.8136936711,-33.4039684423 z"/>
</svg>
