<?xml version="1.0" ?>
<svg height="400" version="1.1" width="650" xmlns="http://www.w3.org/2000/svg" xmlns:svg="http://www.w3.org/2000/svg">
	<style type="text/css">
		.slice-10 { fill: #385a2a; stroke: #d6d9db; stroke-width:2;}

.slice-9 { fill: #66903d; stroke: #d6d9db; stroke-width:2;}

.slice-8 { fill: #c1d69f; stroke: #d6d9db; stroke-width:2;}

.slice-7 { fill: #79bcab; stroke: #d6d9db; stroke-width:2;}

.slice-6 { fill: #c2e0d5; stroke: #d6d9db; stroke-width:2;}

.slice-5 { fill: #e9ece3; stroke: #d6d9db; stroke-width:2; }

.slice-4 { fill: #bad9e0; stroke: #d6d9db; stroke-width:2;}

.slice-3 { fill: #669eb3; stroke: #d6d9db; stroke-width:2;}

.slice-2 { fill: #2b5b8e; stroke: #d6d9db; stroke-width:2;}

.slice-1{ fill: #072744; stroke: #d6d9db; stroke-width:2;}



.pie-label-right {font-family: sans-serif; font-size: 12px; font-weight: bold; fill: #58595b; text-anchor:start;}

.pie-label-left {font-family:sans-serif; font-size: 12px; font-weight: bold; fill: #58595b; text-anchor:end;}







	</style>
	<rect fill="white" height="400" width="650" x="0" y="0"/>
	<text class="pie-label-right" x="486" y="195">
		<tspan dy="0" x="486.891408478">
			1.2% - Petroleum
		</tspan>
	</text>
	<path class="slice-1" d="M 315,200  l 165,0  a165,165 0 0,0 -0.434223153716,-11.9626540107 z"/>
	<text class="pie-label-left" x="296" y="27">
		<tspan dy="0" x="296.574503672">
			51.3% - Coal
		</tspan>
	</text>
	<path class="slice-2" d="M 315,200  l 164.565776846,-11.9626540107  a165,165 0 1,0 -327.682265661,36.8224825869 z"/>
	<text class="pie-label-left" x="180" y="314">
		<tspan dy="0" x="180.316501889">
			17.0% - Natural Gas
		</tspan>
	</text>
	<path class="slice-3" d="M 315,200  l -163.116488814,24.8598285763  a165,165 0 0,0 106.506348942,130.124983788 z"/>
	<text class="pie-label-left" x="304" y="374">
		<tspan dy="0" x="304.933802412">
			9.2% - Renewables
		</tspan>
	</text>
	<path class="slice-4" d="M 315,200  l -56.6101398722,154.984812364  a165,165 0 0,0 93.9237138914,5.74072136901 z"/>
	<text class="pie-label-right" x="450" y="313">
		<tspan dy="0" x="450.287379287">
			21.1% - Nuclear
		</tspan>
	</text>
	<path class="slice-5" d="M 315,200  l 37.3135740192,160.725533733  a165,165 0 0,0 127.661006512,-157.829367565 z"/>
	<text class="pie-label-right" x="486" y="201">
		<tspan dy="0" x="486.99364501">
			0.3% - Imports
		</tspan>
	</text>
	<path class="slice-6" d="M 315,200  l 164.974580531,2.89616616896  a165,165 0 0,0 0.0254194685685,-2.89616616896 z"/>
</svg>
