<?xml version="1.0" ?>
<svg height="450" version="1.1" width="600" xmlns="http://www.w3.org/2000/svg" xmlns:svg="http://www.w3.org/2000/svg">
	<style type="text/css">
		.slice-10 { fill: #385a2a; stroke: #d6d9db; stroke-width:2;}

.slice-9 { fill: #66903d; stroke: #d6d9db; stroke-width:2;}

.slice-8 { fill: #c1d69f; stroke: #d6d9db; stroke-width:2;}

.slice-7 { fill: #79bcab; stroke: #d6d9db; stroke-width:2;}

.slice-6 { fill: #c2e0d5; stroke: #d6d9db; stroke-width:2;}

.slice-5 { fill: #e9ece3; stroke: #d6d9db; stroke-width:2; }

.slice-4 { fill: #bad9e0; stroke: #d6d9db; stroke-width:2;}

.slice-3 { fill: #669eb3; stroke: #d6d9db; stroke-width:2;}

.slice-2 { fill: #2b5b8e; stroke: #d6d9db; stroke-width:2;}

.slice-1{ fill: #072744; stroke: #d6d9db; stroke-width:2;}



.pie-label-right {font-family: sans-serif; font-size: 12px; font-weight: bold; fill: #58595b; text-anchor:start;}

.pie-label-left {font-family:sans-serif; font-size: 12px; font-weight: bold; fill: #58595b; text-anchor:end;}







	</style>
	<rect fill="white" height="450" width="600" x="0" y="0"/>
	<text class="pie-label-right" x="362" y="41">
		<tspan dy="0" x="362.458099221">
			37% - Petroleum
		</tspan>
	</text>
	<path class="slice-1" d="M 280,225  l 190,0  a190,190 0 0,0 -320.063950126,-138.50403921 z"/>
	<text class="pie-label-left" x="83" y="198">
		<tspan dy="0" x="83.8432267254">
			23% - Coal
		</tspan>
	</text>
	<path class="slice-2" d="M 280,225  l -130.063950126,-138.50403921  a190,190 0 0,0 -23.6492788048,250.183237146 z"/>
	<text class="pie-label-left" x="237" y="421">
		<tspan dy="0" x="237.397550229">
			24% - Natural Gas
		</tspan>
	</text>
	<path class="slice-3" d="M 280,225  l -153.713228931,111.679197936  a190,190 0 0,0 255.520319977,48.7431079098 z"/>
	<text class="pie-label-right" x="429" y="360">
		<tspan dy="0" x="429.52110323">
			9% - Nuclear
		</tspan>
	</text>
	<path class="slice-4" d="M 280,225  l 101.807091046,160.422305845  a190,190 0 0,0 70.1100489225,-79.524240448 z"/>
	<text class="pie-label-right" x="472" y="276">
		<tspan dy="0" x="472.424184768">
			7.0% - Renewable
		</tspan>
	</text>
	<path class="slice-5" d="M 280,225  l 171.917139969,80.8980653974  a190,190 0 0,0 18.0828600315,-80.8980653974 z"/>
</svg>
