<?xml version="1.0" ?>
<svg height="310" version="1.1" width="475" xmlns="http://www.w3.org/2000/svg" xmlns:svg="http://www.w3.org/2000/svg">
	<style type="text/css">
		

.slice-1 { fill: #621D11; stroke: #e0d1d1; stroke-width:2; }

.slice-2 { fill: #be5227; stroke: #e0d1d1; stroke-width:2; }

.slice-3 { fill: #ea8640; stroke: #e0d1d1; stroke-width:2; }

.slice-4 { fill: #f3b34a; stroke: #e0d1d1; stroke-width:2;  }

.slice-5 { fill: #f2d64b; stroke: #e0d1d1; stroke-width:2; }

.slice-6 { fill: #f2ec9d; stroke: #e0d1d1; stroke-width:2; }

.slice-7 { fill: #e9ece3; stroke: #e0d1d1; stroke-width:2; }

.slice-8 { fill: #cfcece; stroke: #e0d1d1; stroke-width:2; }

.slice-9 { fill: #9f9f9f; stroke: #e0d1d1; stroke-width:2; }

.slice-10{ fill: #7d7d7d; stroke: #e0d1d1; stroke-width:2; }



.pie-label-right {font-family: sans-serif; font-size: 12px; font-weight: bold; fill: #58595b; text-anchor:start;}

.pie-label-left {font-family: sans-serif; font-size: 12px; font-weight: bold; fill: #58595b; text-anchor:end;}





	</style>
	<rect fill="white" height="310" width="475" x="0" y="0"/>
	<text class="pie-label-right" x="290" y="30">
		<tspan dy="0" x="290.466303204">
			37% - Petroleum
		</tspan>
	</text>
	<path class="slice-1" d="M 237,147  l 117,0  a117,117 0 0,0 -197.092011394,-85.2893294083 z"/>
	<text class="pie-label-left" x="117" y="105">
		<tspan dy="0" x="117.645638776">
			17% - Non-Fossil
		</tspan>
	</text>
	<path class="slice-2" d="M 237,147  l -80.0920113937,-85.2893294083  a117,117 0 0,0 -33.2322184584,114.386046207 z"/>
	<text class="pie-label-left" x="161" y="251">
		<tspan dy="0" x="161.229125482">
			22% - Coal
		</tspan>
	</text>
	<path class="slice-3" d="M 237,147  l -113.324229852,29.0967167983  a117,117 0 0,0 120.670720637,87.6724104278 z"/>
	<text class="pie-label-right" x="329" y="237">
		<tspan dy="0" x="329.289329408">
			24% - Natural Gas
		</tspan>
	</text>
	<path class="slice-4" d="M 237,147  l 7.34649078493,116.769127226  a117,117 0 0,0 109.653509215,-116.769127226 z"/>
</svg>
