<?xml version="1.0" ?>
<svg height="340" version="1.1" width="480" xmlns="http://www.w3.org/2000/svg" xmlns:svg="http://www.w3.org/2000/svg">
	<style type="text/css">
		.y-axis-path, .y-axis-path2, .y-gridline {display:none;}



.x-notch, .x-notch-left, .x-notch-right { stroke: #a7a9ac; }

.x-axis-path { fill:none; stroke: #a7a9ac; stroke-width:1; stroke-linecap:butt; stroke-linejoin: miter; stroke-miterlimit:4; stroke-dasharray:none; stroke-opacity:1 }

.series-0-point { stroke: #e0d1d1; fill: #bf5004; stroke-width: 2px; }



.series-1-point { stroke: #d6d9db; fill: #336699; stroke-width:2px; }



.series-2-point { stroke: #eff5e6; fill: #9ca991; stroke-width: 2px; }





.x-axis-label, .data-point-label {font-size: 12px; font-weight:bold; font-family: sans-serif; fill: #58595b; text-anchor:middle;}



.y-axis-label { display:none;}

	</style>
	<rect fill="white" height="340" width="480" x="0" y="0"/>
	<g id="grid" transform="translate(30, 30)">
		<g class="x-axis" id="x_axis">
			<path class="x-axis-path" d="M 0 180 L 420 180"/>
			<path class="x-notch-left" d="M 0 180, L 0 190"/>
			<path class="x-notch-right" d="M 420 180, L 420 190"/>
		</g>
		<g class="y-axis" id="y_axis">
			<path class="y-axis-path" d="M 0 180 L 0 0"/>
			<path class="y-axis-path-2" d="M 420 180 L 420 0"/>
			<path class="y-gridline" d="M 0 0 L 420 0"/>
			<text class="y-axis-label" x="-5" y="0">
				26
			</text>
			<path class="y-gridline" d="M 0 30 L 420 30"/>
			<text class="y-axis-label" x="-5" y="30">
				21
			</text>
			<path class="y-gridline" d="M 0 60 L 420 60"/>
			<text class="y-axis-label" x="-5" y="60">
				17
			</text>
			<path class="y-gridline" d="M 0 90 L 420 90"/>
			<text class="y-axis-label" x="-5" y="90">
				13
			</text>
			<path class="y-gridline" d="M 0 120 L 420 120"/>
			<text class="y-axis-label" x="-5" y="120">
				8
			</text>
			<path class="y-gridline" d="M 0 150 L 420 150"/>
			<text class="y-axis-label" x="-5" y="150">
				4
			</text>
		</g>
		<path class="x-notch" d="M 52 180 L 52 185"/>
		<rect class="series-0-point" height="163.636363636" width="52" x="0" y="16.3636363636"/>
		<text class="data-point-label" x="26" y="11.3636363636">
			23.9
		</text>
		<path class="x-notch" d="M 104 180 L 104 185"/>
		<rect class="series-0-point" height="145.150247242" width="52" x="52" y="34.8497527577"/>
		<text class="data-point-label" x="78" y="29.8497527577">
			21.2
		</text>
		<path class="x-notch" d="M 156 180 L 156 185"/>
		<rect class="series-0-point" height="71.8904526436" width="52" x="104" y="108.109547356"/>
		<text class="data-point-label" x="130" y="103.109547356">
			10.5
		</text>
		<path class="x-notch" d="M 208 180 L 208 185"/>
		<rect class="series-0-point" height="58.1970330924" width="52" x="156" y="121.802966908"/>
		<text class="data-point-label" x="182" y="116.802966908">
			8.5
		</text>
		<path class="x-notch" d="M 260 180 L 260 185"/>
		<rect class="series-0-point" height="26.7021681248" width="52" x="208" y="153.297831875"/>
		<text class="data-point-label" x="234" y="148.297831875">
			3.9
		</text>
		<path class="x-notch" d="M 312 180 L 312 185"/>
		<rect class="series-0-point" height="17.116774439" width="52" x="260" y="162.883225561"/>
		<text class="data-point-label" x="286" y="157.883225561">
			2.5
		</text>
		<path class="x-notch" d="M 364 180 L 364 185"/>
		<rect class="series-0-point" height="16.4321034614" width="52" x="312" y="163.567896539"/>
		<text class="data-point-label" x="338" y="158.567896539">
			2.4
		</text>
		<rect class="series-0-point" height="6.84670977558" width="52" x="364" y="173.153290224"/>
		<text class="data-point-label" x="390" y="168.153290224">
			1.0
		</text>
		<text class="x-axis-label" style="text-anchor: end;" transform="rotate(-35, 26, 190)" x="26" y="190">
			Biomass
		</text>
		<text class="x-axis-label" style="text-anchor: end;" transform="rotate(-35, 78, 190)" x="78" y="190">
			Coal
		</text>
		<text class="x-axis-label" style="text-anchor: end;" transform="rotate(-35, 130, 190)" x="130" y="190">
			Crude Oil
		</text>
		<text class="x-axis-label" style="text-anchor: end;" transform="rotate(-35, 182, 190)" x="182" y="190">
			Hydroelectric Power
		</text>
		<text class="x-axis-label" style="text-anchor: end;" transform="rotate(-35, 234, 190)" x="234" y="190">
			Natural Gas
		</text>
		<text class="x-axis-label" style="text-anchor: end;" transform="rotate(-35, 286, 190)" x="286" y="190">
			Natural Gas Plant Liquids
		</text>
		<text class="x-axis-label" style="text-anchor: end;" transform="rotate(-35, 338, 190)" x="338" y="190">
			Nuclear Electric Power
		</text>
		<text class="x-axis-label" style="text-anchor: end;" transform="rotate(-35, 390, 190)" x="390" y="190">
			Wind, Geothermal, Solar P/V
		</text>
	</g>
</svg>
