<?xml version="1.0" ?>
<svg height="300" version="1.1" width="515" xmlns="http://www.w3.org/2000/svg" xmlns:svg="http://www.w3.org/2000/svg">
	<style type="text/css">
		rect {fill: #FFFFFF;}

.x-axis-path, .y-gridline, .x-notch { fill:none; stroke: #a7a9ac; stroke-width:1; }



.y-axis-path, .y-axis-path2, .x-notch-left, .x-notch-right { display: none;}



.x-axis-label, .data-point-label {font-size: 12px; font-weight:normal; font-family: sans-serif; fill: #58595b; text-anchor:middle;}

.y-axis-label {font-size: 12px; font-family: helvetica; fill: #a7a9ac; text-anchor:end;}



.series-1-line { fill: none; stroke: #bf5004; stroke-width:2; }

.series-2-line { fill: none; stroke: #bf5004; stroke-width:2; }



.series-3-line { fill: none; stroke: #336699; stroke-width: 2;}

.series-4-line { fill: none; stroke: #336699; stroke-width: 2;}

	</style>
	<rect fill="white" height="300" width="515" x="0" y="0"/>
	<g id="grid" transform="translate(30, 30)">
		<g class="x-axis" id="x_axis">
			<path class="x-axis-path" d="M 0 225 L 455 225"/>
			<path class="x-notch-left" d="M 0 225, L 0 235"/>
			<path class="x-notch-right" d="M 455 225, L 455 235"/>
		</g>
		<g class="y-axis" id="y_axis">
			<path class="y-axis-path" d="M 0 225 L 0 0"/>
			<path class="y-axis-path-2" d="M 455 225 L 455 0"/>
			<path class="y-gridline" d="M 0 0 L 455 0"/>
			<text class="y-axis-label" x="-5" y="0">
				12.9
			</text>
			<path class="y-gridline" d="M 0 37 L 455 37"/>
			<text class="y-axis-label" x="-5" y="37">
				10.8
			</text>
			<path class="y-gridline" d="M 0 74 L 455 74"/>
			<text class="y-axis-label" x="-5" y="74">
				8.6
			</text>
			<path class="y-gridline" d="M 0 111 L 455 111"/>
			<text class="y-axis-label" x="-5" y="111">
				6.5
			</text>
			<path class="y-gridline" d="M 0 148 L 455 148"/>
			<text class="y-axis-label" x="-5" y="148">
				4.3
			</text>
			<path class="y-gridline" d="M 0 185 L 455 185"/>
			<text class="y-axis-label" x="-5" y="185">
				2.2
			</text>
		</g>
		<g>
			<path class="series-1-line" d="M 35 170.512572534 L 131 150.667311412 L 227 167.553191489"/>
			<path class="series-2-line" d="M 227 167.553191489 L 227 167.553191489 L 323 170.338491296 L 420 173.123791103" stroke-dasharray="10,10"/>
			<path class="series-3-line" d="M 35 216.64410058 L 131 192.446808511 L 227 57.8820116054"/>
			<path class="series-4-line" d="M 227 57.8820116054 L 227 57.8820116054 L 323 20.4545454545 L 420 98.7911025145" stroke-dasharray="10,10"/>
		</g>
		<text class="x-axis-label" x="35.0" y="240">
			2009
		</text>
		<path class="x-notch" d="M 83.125 225 L 83.125 230"/>
		<text class="x-axis-label" x="131.25" y="240">
			2010
		</text>
		<path class="x-notch" d="M 179.375 225 L 179.375 230"/>
		<text class="x-axis-label" x="227.5" y="240">
			2011
		</text>
		<path class="x-notch" d="M 275.625 225 L 275.625 230"/>
		<text class="x-axis-label" x="323.75" y="240">
			2012
		</text>
		<path class="x-notch" d="M 371.875 225 L 371.875 230"/>
		<text class="x-axis-label" x="420.0" y="240">
			2013
		</text>
	</g>
</svg>
