<?xml version="1.0" ?>
<svg height="400" version="1.1" width="650" xmlns="http://www.w3.org/2000/svg" xmlns:svg="http://www.w3.org/2000/svg">
	<style type="text/css">
		.slice-10 { fill: #385a2a; stroke: #d6d9db; stroke-width:2;}

.slice-9 { fill: #66903d; stroke: #d6d9db; stroke-width:2;}

.slice-8 { fill: #c1d69f; stroke: #d6d9db; stroke-width:2;}

.slice-7 { fill: #79bcab; stroke: #d6d9db; stroke-width:2;}

.slice-6 { fill: #c2e0d5; stroke: #d6d9db; stroke-width:2;}

.slice-5 { fill: #e9ece3; stroke: #d6d9db; stroke-width:2; }

.slice-4 { fill: #bad9e0; stroke: #d6d9db; stroke-width:2;}

.slice-3 { fill: #669eb3; stroke: #d6d9db; stroke-width:2;}

.slice-2 { fill: #2b5b8e; stroke: #d6d9db; stroke-width:2;}

.slice-1{ fill: #072744; stroke: #d6d9db; stroke-width:2;}



.pie-label-right {font-family: sans-serif; font-size: 12px; font-weight: bold; fill: #58595b; text-anchor:start;}

.pie-label-left {font-family:sans-serif; font-size: 12px; font-weight: bold; fill: #58595b; text-anchor:end;}







	</style>
	<rect fill="white" height="400" width="650" x="0" y="0"/>
	<text class="pie-label-right" x="486" y="194">
		<tspan dy="0" x="486.890799246">
			1.2% - Petroleum
		</tspan>
	</text>
	<path class="slice-1" d="M 315,200  l 165,0  a165,165 0 0,0 -0.436658474391,-11.9961087827 z"/>
	<text class="pie-label-left" x="295" y="27">
		<tspan dy="0" x="295.801741399">
			51.4% - Coal
		</tspan>
	</text>
	<path class="slice-2" d="M 315,200  l 164.563341526,-11.9961087827  a165,165 0 1,0 -327.443560815,38.3596093923 z"/>
	<text class="pie-label-left" x="181" y="315">
		<tspan dy="0" x="181.444452077">
			17.1% - Natural Gas
		</tspan>
	</text>
	<path class="slice-3" d="M 315,200  l -162.880219289,26.3635006096  a165,165 0 0,0 108.168302974,129.301544321 z"/>
	<text class="pie-label-left" x="307" y="374">
		<tspan dy="0" x="307.08069476">
			9.2% - Renewables
		</tspan>
	</text>
	<path class="slice-4" d="M 315,200  l -54.7119163153,155.66504493  a165,165 0 0,0 94.246451645,4.52865193794 z"/>
	<text class="pie-label-right" x="451" y="311">
		<tspan dy="0" x="451.900343205">
			21.1% - Nuclear
		</tspan>
	</text>
	<path class="slice-5" d="M 315,200  l 39.5345353297,160.193696868  a165,165 0 0,0 125.46546467,-160.193696868 z"/>
</svg>
