<?xml version="1.0" ?>
<svg height="300" version="1.1" width="300" xmlns="http://www.w3.org/2000/svg" xmlns:svg="http://www.w3.org/2000/svg">
	<style type="text/css">
		.slice-10 { fill: #385a2a; stroke: #d6d9db; stroke-width:2;}

.slice-9 { fill: #66903d; stroke: #d6d9db; stroke-width:2;}

.slice-8 { fill: #c1d69f; stroke: #d6d9db; stroke-width:2;}

.slice-7 { fill: #79bcab; stroke: #d6d9db; stroke-width:2;}

.slice-6 { fill: #c2e0d5; stroke: #d6d9db; stroke-width:2;}

.slice-5 { fill: #e9ece3; stroke: #d6d9db; stroke-width:2; }

.slice-4 { fill: #bad9e0; stroke: #d6d9db; stroke-width:2;}

.slice-3 { fill: #669eb3; stroke: #d6d9db; stroke-width:2;}

.slice-2 { fill: #2b5b8e; stroke: #d6d9db; stroke-width:2;}

.slice-1{ fill: #072744; stroke: #d6d9db; stroke-width:2;}



.pie-label-right {font-family: sans-serif; font-size: 12px; font-weight: bold; fill: #58595b; text-anchor:start;}

.pie-label-left {font-family:sans-serif; font-size: 12px; font-weight: bold; fill: #58595b; text-anchor:end;}







	</style>
	<rect fill="white" height="300" width="300" x="0" y="0"/>
	<text class="pie-label-left" x="56" y="84">
		<tspan dy="0" x="56.5236437397">
			80.2% - All Other Tax Expenditures
		</tspan>
	</text>
	<path class="slice-1" d="M 150,150  l 110,0  a110,110 0 1,0 -74.6448075967,104.163383058 z"/>
	<text class="pie-label-right" x="190" y="257">
		<tspan dy="12" x="190.582511425">
			0.5% - Energy
		</tspan>
	</text>
	<path class="slice-2" d="M 150,150  l 35.3551924033,104.163383058  a110,110 0 0,0 3.46286200347,-1.24031153351 z"/>
	<text class="pie-label-right" x="243" y="216">
		<tspan dy="12" x="243.803516815">
			18.9% - Housing
		</tspan>
	</text>
	<path class="slice-3" d="M 150,150  l 38.8180544067,102.923071525  a110,110 0 0,0 71.1512129284,-100.323025032 z"/>
	<text class="pie-label-right" x="265" y="150">
		<tspan dy="0" x="265.0">
			0.4% - Transportation
		</tspan>
	</text>
	<path class="slice-4" d="M 150,150  l 109.969267335,2.60004649295  a110,110 0 0,0 0.030732664828,-2.60004649295 z"/>
</svg>
