<?xml version="1.0" ?>
<svg height="200" version="1.1" width="300" xmlns="http://www.w3.org/2000/svg" xmlns:svg="http://www.w3.org/2000/svg">
	<style type="text/css">
		

.x-axis-path, .y-gridline, .x-notch { fill:none; stroke: #a7a9ac; stroke-width:1; }



.y-gridline { stroke-width: 1; }

.y-axis-path, .y-axis-path2, .x-notch-left, .x-notch-right { display: none;}



.x-axis-label, .data-point-label {font-size: 12px; font-weight:normal; font-family: sans-serif; fill: #58595b; text-anchor:middle;}

.y-axis-label {font-size: 12px; font-family: helvetica; fill: #a7a9ac; text-anchor:end;}



.series-1-line { fill: none; stroke: #bf5004; stroke-width:2; }



.series-2-line { fill: none; stroke: #336699; stroke-width: 2;}

	</style>
	<rect fill="white" height="200" width="300" x="0" y="0"/>
	<g id="grid" transform="translate(20, 10)">
		<g class="x-axis" id="x_axis">
			<path class="x-axis-path" d="M 0 165 L 260 165"/>
			<path class="x-notch-left" d="M 0 165, L 0 175"/>
			<path class="x-notch-right" d="M 260 165, L 260 175"/>
		</g>
		<g class="y-axis" id="y_axis">
			<path class="y-axis-path" d="M 0 165 L 0 0"/>
			<path class="y-axis-path-2" d="M 260 165 L 260 0"/>
			<path class="y-gridline" d="M 0 165 L 260 165"/>
			<text class="y-axis-label" x="-5" y="165">
				400
			</text>
			<path class="y-gridline" d="M 0 132 L 260 132"/>
			<text class="y-axis-label" x="-5" y="132">
				600
			</text>
			<path class="y-gridline" d="M 0 99 L 260 99"/>
			<text class="y-axis-label" x="-5" y="99">
				800
			</text>
			<path class="y-gridline" d="M 0 66 L 260 66"/>
			<text class="y-axis-label" x="-5" y="66">
				1000
			</text>
			<path class="y-gridline" d="M 0 33 L 260 33"/>
			<text class="y-axis-label" x="-5" y="33">
				1200
			</text>
			<path class="y-gridline" d="M 0 0 L 260 0"/>
			<text class="y-axis-label" x="-5" y="0">
				1400
			</text>
		</g>
		<g>
			<path class="series-1-line" d="M 10 145.893 L 18 139.2105 L 27 133.683 L 36 126.5055 L 45 117.282 L 54 125.004 L 63 148.7475 L 72 143.8965 L 81 142.824 L 90 144.342 L 98 141.471 L 107 140.2005 L 116 135.498 L 125 132.099 L 134 131.5875 L 143 127.281 L 152 113.7015 L 161 104.8245 L 170 98.9835 L 178 87.846 L 187 82.335 L 196 88.539 L 205 93.852 L 214 89.529 L 223 81.675 L 232 86.328 L 241 83.9685 L 250 69.168"/>
			<path class="series-2-line" d="M 10 123.387 L 18 119.2785 L 27 115.302 L 36 108.1905 L 45 104.412 L 54 106.095 L 63 104.4615 L 72 102.795 L 81 104.3625 L 90 101.013 L 98 104.1975 L 107 105.633 L 116 107.778 L 125 109.56 L 134 114.5265 L 143 113.52 L 152 113.949 L 161 111.309 L 170 104.8575 L 178 100.848 L 187 86.196 L 196 71.5605 L 205 62.337 L 214 54.351 L 223 51.6945 L 232 52.6185 L 241 40.9365 L 250 26.7795"/>
		</g>
		<text class="x-axis-label" x="10.0" y="180">
			1982
		</text>
		<path class="x-notch" d="M 32.2222222222 165 L 32.2222222222 170"/>
		<text class="x-axis-label" x="54.4444444444" y="180">
			1987
		</text>
		<path class="x-notch" d="M 76.6666666667 165 L 76.6666666667 170"/>
		<text class="x-axis-label" x="98.8888888889" y="180">
			1992
		</text>
		<path class="x-notch" d="M 121.111111111 165 L 121.111111111 170"/>
		<text class="x-axis-label" x="143.333333333" y="180">
			1997
		</text>
		<path class="x-notch" d="M 165.555555556 165 L 165.555555556 170"/>
		<text class="x-axis-label" x="187.777777778" y="180">
			2002
		</text>
		<path class="x-notch" d="M 210.0 165 L 210.0 170"/>
		<text class="x-axis-label" x="232.222222222" y="180">
			2007
		</text>
		<path class="x-notch" d="M 254.444444444 165 L 254.444444444 170"/>
	</g>
</svg>
