<?xml version="1.0" ?>
<svg height="200" version="1.1" width="300" xmlns="http://www.w3.org/2000/svg" xmlns:svg="http://www.w3.org/2000/svg">
	<style type="text/css">
		

.x-axis-path, .y-gridline, .x-notch { fill:none; stroke: #a7a9ac; stroke-width:1; }



.y-gridline { stroke-width: 1; }

.y-axis-path, .y-axis-path2, .x-notch-left, .x-notch-right { display: none;}



.x-axis-label, .data-point-label {font-size: 12px; font-weight:normal; font-family: sans-serif; fill: #58595b; text-anchor:middle;}

.y-axis-label {font-size: 12px; font-family: helvetica; fill: #a7a9ac; text-anchor:end;}



.series-1-line { fill: none; stroke: #bf5004; stroke-width:2; }



.series-2-line { fill: none; stroke: #336699; stroke-width: 2;}

	</style>
	<rect fill="white" height="200" width="300" x="0" y="0"/>
	<g id="grid" transform="translate(20, 10)">
		<g class="x-axis" id="x_axis">
			<path class="x-axis-path" d="M 0 165 L 260 165"/>
			<path class="x-notch-left" d="M 0 165, L 0 175"/>
			<path class="x-notch-right" d="M 260 165, L 260 175"/>
		</g>
		<g class="y-axis" id="y_axis">
			<path class="y-axis-path" d="M 0 165 L 0 0"/>
			<path class="y-axis-path-2" d="M 260 165 L 260 0"/>
			<path class="y-gridline" d="M 0 165 L 260 165"/>
			<text class="y-axis-label" x="-5" y="165">
				 0
			</text>
			<path class="y-gridline" d="M 0 132 L 260 132"/>
			<text class="y-axis-label" x="-5" y="132">
				300
			</text>
			<path class="y-gridline" d="M 0 99 L 260 99"/>
			<text class="y-axis-label" x="-5" y="99">
				600
			</text>
			<path class="y-gridline" d="M 0 66 L 260 66"/>
			<text class="y-axis-label" x="-5" y="66">
				900
			</text>
			<path class="y-gridline" d="M 0 33 L 260 33"/>
			<text class="y-axis-label" x="-5" y="33">
				1200
			</text>
			<path class="y-gridline" d="M 0 0 L 260 0"/>
			<text class="y-axis-label" x="-5" y="0">
				1500
			</text>
		</g>
		<g>
			<path class="series-1-line" d="M 10 108.262 L 18 103.807 L 27 100.122 L 36 95.337 L 45 89.188 L 54 94.336 L 63 110.165 L 72 106.931 L 81 106.216 L 90 107.228 L 98 105.314 L 107 104.467 L 116 101.332 L 125 99.066 L 134 98.725 L 143 95.854 L 152 86.801 L 161 80.883 L 170 76.989 L 178 69.564 L 187 65.89 L 196 70.026 L 205 73.568 L 214 70.686 L 223 65.45 L 232 68.552 L 241 66.979 L 250 57.112"/>
			<path class="series-2-line" d="M 10 93.258 L 18 90.519 L 27 87.868 L 36 83.127 L 45 80.608 L 54 81.73 L 63 80.641 L 72 79.53 L 81 80.575 L 90 78.342 L 98 80.465 L 107 81.422 L 116 82.852 L 125 84.04 L 134 87.351 L 143 86.68 L 152 86.966 L 161 85.206 L 170 80.905 L 178 78.232 L 187 68.464 L 196 58.707 L 205 52.558 L 214 47.234 L 223 45.463 L 232 46.079 L 241 38.291 L 250 28.853"/>
		</g>
		<text class="x-axis-label" x="10.0" y="180">
			1982
		</text>
		<path class="x-notch" d="M 32.2222222222 165 L 32.2222222222 170"/>
		<text class="x-axis-label" x="54.4444444444" y="180">
			1987
		</text>
		<path class="x-notch" d="M 76.6666666667 165 L 76.6666666667 170"/>
		<text class="x-axis-label" x="98.8888888889" y="180">
			1992
		</text>
		<path class="x-notch" d="M 121.111111111 165 L 121.111111111 170"/>
		<text class="x-axis-label" x="143.333333333" y="180">
			1997
		</text>
		<path class="x-notch" d="M 165.555555556 165 L 165.555555556 170"/>
		<text class="x-axis-label" x="187.777777778" y="180">
			2002
		</text>
		<path class="x-notch" d="M 210.0 165 L 210.0 170"/>
		<text class="x-axis-label" x="232.222222222" y="180">
			2007
		</text>
		<path class="x-notch" d="M 254.444444444 165 L 254.444444444 170"/>
	</g>
</svg>
