<?xml version="1.0" ?>
<svg height="340" version="1.1" width="500" xmlns="http://www.w3.org/2000/svg" xmlns:svg="http://www.w3.org/2000/svg">
	<style type="text/css">
		.y-axis-path, .y-axis-path2, .y-gridline {display:none;}



.x-notch, .x-notch-left, .x-notch-right { stroke: #a7a9ac; }

.x-axis-path { fill:none; stroke: #a7a9ac; stroke-width:1; stroke-linecap:butt; stroke-linejoin: miter; stroke-miterlimit:4; stroke-dasharray:none; stroke-opacity:1 }

.series-0-point { stroke: #e0d1d1; fill: #bf5004; stroke-width: 2px; }



.series-1-point { stroke: #d6d9db; fill: #336699; stroke-width:2px; }



.series-2-point { stroke: #eff5e6; fill: #9ca991; stroke-width: 2px; }





.x-axis-label, .data-point-label {font-size: 12px; font-weight:bold; font-family: sans-serif; fill: #58595b; text-anchor:middle;}



.y-axis-label { display:none;}

	</style>
	<rect fill="white" height="340" width="500" x="0" y="0"/>
	<g id="grid" transform="translate(30, 30)">
		<g class="x-axis" id="x_axis">
			<path class="x-axis-path" d="M 0 180 L 440 180"/>
			<path class="x-notch-left" d="M 0 180, L 0 190"/>
			<path class="x-notch-right" d="M 440 180, L 440 190"/>
		</g>
		<g class="y-axis" id="y_axis">
			<path class="y-axis-path" d="M 0 180 L 0 0"/>
			<path class="y-axis-path-2" d="M 440 180 L 440 0"/>
			<path class="y-gridline" d="M 0 0 L 440 0"/>
			<text class="y-axis-label" x="-5" y="0">
				206.4Th
			</text>
			<path class="y-gridline" d="M 0 30 L 440 30"/>
			<text class="y-axis-label" x="-5" y="30">
				172.0Th
			</text>
			<path class="y-gridline" d="M 0 60 L 440 60"/>
			<text class="y-axis-label" x="-5" y="60">
				137.6Th
			</text>
			<path class="y-gridline" d="M 0 90 L 440 90"/>
			<text class="y-axis-label" x="-5" y="90">
				103.2Th
			</text>
			<path class="y-gridline" d="M 0 120 L 440 120"/>
			<text class="y-axis-label" x="-5" y="120">
				68.8Th
			</text>
			<path class="y-gridline" d="M 0 150 L 440 150"/>
			<text class="y-axis-label" x="-5" y="150">
				34.4Th
			</text>
		</g>
		<rect class="series-0-point" height="5.61617022926" width="60" x="13" y="174.383829771"/>
		<text class="data-point-label" x="43" y="169.383829771">
			6.4Th
		</text>
		<rect class="series-0-point" height="163.636363636" width="60" x="159" y="16.3636363636"/>
		<text class="data-point-label" x="189" y="11.3636363636">
			187.6Th
		</text>
		<rect class="series-0-point" height="3.21796089223" width="60" x="305" y="176.782039108"/>
		<text class="data-point-label" x="335" y="171.782039108">
			3.7Th
		</text>
		<path class="x-notch" d="M 146 180 L 146 185"/>
		<rect class="series-1-point" height="41.1096684173" width="60" x="73" y="138.890331583"/>
		<text class="data-point-label" x="103" y="133.890331583">
			47.1Th
		</text>
		<path class="x-notch" d="M 292 180 L 292 185"/>
		<rect class="series-1-point" height="140.334489642" width="60" x="219" y="39.6655103583"/>
		<text class="data-point-label" x="249" y="34.6655103583">
			160.9Th
		</text>
		<rect class="series-1-point" height="8.26728164183" width="60" x="365" y="171.732718358"/>
		<text class="data-point-label" x="395" y="166.732718358">
			9.5Th
		</text>
		<text class="x-axis-label" style="text-anchor: end;" transform="rotate(-35, 73, 190)" x="73" y="190">
			Energy
		</text>
		<text class="x-axis-label" style="text-anchor: end;" transform="rotate(-35, 219, 190)" x="219" y="190">
			Housing
		</text>
		<text class="x-axis-label" style="text-anchor: end;" transform="rotate(-35, 365, 190)" x="365" y="190">
			Transportation
		</text>
	</g>
</svg>
