<?xml version="1.0" ?>
<svg height="200" version="1.1" width="400" xmlns="http://www.w3.org/2000/svg" xmlns:svg="http://www.w3.org/2000/svg">
	<style type="text/css">
		.y-axis-path, .y-axis-path2, .y-gridline {display:none;}



.x-notch, .x-notch-left, .x-notch-right { stroke: #a7a9ac; }

.x-axis-path { fill:none; stroke: #a7a9ac; stroke-width:1; stroke-linecap:butt; stroke-linejoin: miter; stroke-miterlimit:4; stroke-dasharray:none; stroke-opacity:1 }

.series-0-point { stroke: #e0d1d1; fill: #bf5004; stroke-width: 2px; }



.series-1-point { stroke: #d6d9db; fill: #336699; stroke-width:2px; }



.series-2-point { stroke: #eff5e6; fill: #9ca991; stroke-width: 2px; }





.x-axis-label, .data-point-label {font-size: 12px; font-weight:bold; font-family: sans-serif; fill: #58595b; text-anchor:middle;}



.y-axis-label { display:none;}

	</style>
	<rect fill="white" height="200" width="400" x="0" y="0"/>
	<g id="grid" transform="translate(30, 30)">
		<g class="x-axis" id="x_axis">
			<path class="x-axis-path" d="M 0 90 L 340 90"/>
			<path class="x-notch-left" d="M 0 90, L 0 100"/>
			<path class="x-notch-right" d="M 340 90, L 340 100"/>
		</g>
		<g class="y-axis" id="y_axis">
			<path class="y-axis-path" d="M 0 90 L 0 0"/>
			<path class="y-axis-path-2" d="M 340 90 L 340 0"/>
			<path class="y-gridline" d="M 0 90 L 340 90"/>
			<text class="y-axis-label" x="-5" y="90">
				 0
			</text>
			<path class="y-gridline" d="M 0 68 L 340 68"/>
			<text class="y-axis-label" x="-5" y="68">
				50
			</text>
			<path class="y-gridline" d="M 0 46 L 340 46"/>
			<text class="y-axis-label" x="-5" y="46">
				100
			</text>
			<path class="y-gridline" d="M 0 24 L 340 24"/>
			<text class="y-axis-label" x="-5" y="24">
				150
			</text>
			<path class="y-gridline" d="M 0 2 L 340 2"/>
			<text class="y-axis-label" x="-5" y="2">
				200
			</text>
		</g>
		<rect class="series-0-point" height="2.898" width="30" x="26" y="87.102"/>
		<text class="data-point-label" x="41" y="82.102">
			 6
		</text>
		<rect class="series-0-point" height="84.438" width="30" x="139" y="5.562"/>
		<text class="data-point-label" x="154" y="0.562">
			187
		</text>
		<rect class="series-0-point" height="1.6605" width="30" x="252" y="88.3395"/>
		<text class="data-point-label" x="267" y="83.3395">
			 3
		</text>
		<path class="x-notch" d="M 112 90 L 112 95"/>
		<rect class="series-1-point" height="21.213" width="30" x="56" y="68.787"/>
		<text class="data-point-label" x="71" y="63.787">
			47
		</text>
		<path class="x-notch" d="M 225 90 L 225 95"/>
		<rect class="series-1-point" height="72.414" width="30" x="169" y="17.586"/>
		<text class="data-point-label" x="184" y="12.586">
			160
		</text>
		<rect class="series-1-point" height="4.266" width="30" x="282" y="85.734"/>
		<text class="data-point-label" x="297" y="80.734">
			 9
		</text>
		<text class="x-axis-label" x="56" y="100">
			Energy
		</text>
		<text class="x-axis-label" x="169" y="100">
			Housing
		</text>
		<text class="x-axis-label" x="282" y="100">
			Transportation
		</text>
	</g>
</svg>
