<?xml version="1.0" ?>
<svg height="200" version="1.1" width="400" xmlns="http://www.w3.org/2000/svg" xmlns:svg="http://www.w3.org/2000/svg">
	<style type="text/css">
		.y-axis-path, .y-axis-path2, .y-gridline {display:none;}



.x-notch, .x-notch-left, .x-notch-right { stroke: #a7a9ac; }

.x-axis-path { fill:none; stroke: #a7a9ac; stroke-width:1; stroke-linecap:butt; stroke-linejoin: miter; stroke-miterlimit:4; stroke-dasharray:none; stroke-opacity:1 }

.series-0-point { stroke: #e0d1d1; fill: #bf5004; stroke-width: 1px; }



.series-1-point { stroke: #d6d9db; fill: #336699; stroke-width: 1px; }



.series-2-point { stroke: #eff5e6; fill: #9ca991; stroke-width: 1px; }





.x-axis-label, .data-point-label {font-size: 12px; font-weight:bold; font-family: sans-serif; fill: #58595b; text-anchor:middle;}



.y-axis-label { display:none;}

	</style>
	<rect fill="white" height="200" width="400" x="0" y="0"/>
	<g id="grid" transform="translate(40, 30)">
		<g class="x-axis" id="x_axis">
			<path class="x-axis-path" d="M 0 90 L 320 90"/>
			<path class="x-notch-left" d="M 0 90, L 0 100"/>
			<path class="x-notch-right" d="M 320 90, L 320 100"/>
		</g>
		<g class="y-axis" id="y_axis">
			<path class="y-axis-path" d="M 0 90 L 0 0"/>
			<path class="y-axis-path-2" d="M 320 90 L 320 0"/>
			<path class="y-gridline" d="M 0 90 L 320 90"/>
			<text class="y-axis-label" x="-5" y="90">
				 0
			</text>
			<path class="y-gridline" d="M 0 68 L 320 68"/>
			<text class="y-axis-label" x="-5" y="68">
				50
			</text>
			<path class="y-gridline" d="M 0 46 L 320 46"/>
			<text class="y-axis-label" x="-5" y="46">
				100
			</text>
			<path class="y-gridline" d="M 0 24 L 320 24"/>
			<text class="y-axis-label" x="-5" y="24">
				150
			</text>
			<path class="y-gridline" d="M 0 2 L 320 2"/>
			<text class="y-axis-label" x="-5" y="2">
				200
			</text>
		</g>
		<rect class="series-0-point" height="83.3445" width="30" x="23" y="6.6555"/>
		<text class="data-point-label" x="38" y="1.6555">
			185
		</text>
		<rect class="series-0-point" height="2.349" width="30" x="129" y="87.651"/>
		<text class="data-point-label" x="144" y="82.651">
			 5
		</text>
		<rect class="series-0-point" height="1.6605" width="30" x="235" y="88.3395"/>
		<text class="data-point-label" x="250" y="83.3395">
			 3
		</text>
		<path class="x-notch" d="M 106 90 L 106 95"/>
		<rect class="series-1-point" height="69.12" width="30" x="53" y="20.88"/>
		<text class="data-point-label" x="68" y="15.88">
			153
		</text>
		<path class="x-notch" d="M 212 90 L 212 95"/>
		<rect class="series-1-point" height="5.805" width="30" x="159" y="84.195"/>
		<text class="data-point-label" x="174" y="79.195">
			12
		</text>
		<rect class="series-1-point" height="2.025" width="30" x="265" y="87.975"/>
		<text class="data-point-label" x="280" y="82.975">
			 4
		</text>
		<text class="x-axis-label" x="53" y="105">
			Housing
		</text>
		<text class="x-axis-label" x="159" y="105">
			Energy
		</text>
		<text class="x-axis-label" x="265" y="105">
			Transportation
		</text>
	</g>
</svg>
