<?xml version="1.0" ?>
<svg height="300" version="1.1" width="600" xmlns="http://www.w3.org/2000/svg" xmlns:svg="http://www.w3.org/2000/svg">
	<style type="text/css">
		.y-axis-path, .y-axis-path2, .y-gridline {display:none;}



.x-notch, .x-notch-left, .x-notch-right { stroke: #a7a9ac; }

.x-axis-path { fill:none; stroke: #a7a9ac; stroke-width:1; stroke-linecap:butt; stroke-linejoin: miter; stroke-miterlimit:4; stroke-dasharray:none; stroke-opacity:1 }

.series-0-point { stroke: #e0d1d1; fill: #bf5004; stroke-width: 2px; }



.series-1-point { stroke: #d6d9db; fill: #336699; stroke-width:2px; }



.series-2-point { stroke: #eff5e6; fill: #9ca991; stroke-width: 2px; }





.x-axis-label, .data-point-label {font-size: 12px; font-weight:bold; font-family: sans-serif; fill: #58595b; text-anchor:middle;}



.y-axis-label { display:none;}

	</style>
	<rect fill="white" height="300" width="600" x="0" y="0"/>
	<g id="grid" transform="translate(30, 30)">
		<g class="x-axis" id="x_axis">
			<path class="x-axis-path" d="M 0 195 L 540 195"/>
			<path class="x-notch-left" d="M 0 195, L 0 205"/>
			<path class="x-notch-right" d="M 540 195, L 540 205"/>
		</g>
		<g class="y-axis" id="y_axis">
			<path class="y-axis-path" d="M 0 195 L 0 0"/>
			<path class="y-axis-path-2" d="M 540 195 L 540 0"/>
			<path class="y-gridline" d="M 0 0 L 540 0"/>
			<text class="y-axis-label" x="-5" y="0">
				880
			</text>
			<path class="y-gridline" d="M 0 32 L 540 32"/>
			<text class="y-axis-label" x="-5" y="32">
				733
			</text>
			<path class="y-gridline" d="M 0 64 L 540 64"/>
			<text class="y-axis-label" x="-5" y="64">
				586
			</text>
			<path class="y-gridline" d="M 0 96 L 540 96"/>
			<text class="y-axis-label" x="-5" y="96">
				440
			</text>
			<path class="y-gridline" d="M 0 128 L 540 128"/>
			<text class="y-axis-label" x="-5" y="128">
				293
			</text>
			<path class="y-gridline" d="M 0 160 L 540 160"/>
			<text class="y-axis-label" x="-5" y="160">
				146
			</text>
		</g>
		<text class="value-as-label" x="30" y="97.5">
			<tspan x="30" y="153">
				Subsidy
			</tspan>
			<tspan x="30" y="167">
				Spending
			</tspan>
			<tspan x="30" y="181">
				Unknown
			</tspan>
		</text>
		<rect class="series-0-point" height="177.272727273" width="60" x="210" y="17.7272727273"/>
		<text class="data-point-label" x="240" y="12.7272727273">
			800
		</text>
		<path class="x-notch" d="M 180 195 L 180 200"/>
		<rect class="series-1-point" height="50.9659090909" width="60" x="90" y="144.034090909"/>
		<text class="data-point-label" x="120" y="139.034090909">
			230
		</text>
		<path class="x-notch" d="M 360 195 L 360 200"/>
		<rect class="series-1-point" height="57.6136363636" width="60" x="270" y="137.386363636"/>
		<text class="data-point-label" x="300" y="132.386363636">
			260
		</text>
		<rect class="series-1-point" height="66.4772727273" width="60" x="450" y="128.522727273"/>
		<text class="data-point-label" x="480" y="123.522727273">
			300
		</text>
		<text class="x-axis-label" style="text-anchor: end;" transform="rotate(-45, 90, 210)" x="90" y="210">
			aaaaaaaaaa
		</text>
		<text class="x-axis-label" style="text-anchor: end;" transform="rotate(-45, 270, 210)" x="270" y="210">
			bbbbbbbbbb
		</text>
		<text class="x-axis-label" style="text-anchor: end;" transform="rotate(-45, 450, 210)" x="450" y="210">
			cccc
		</text>
	</g>
</svg>
