<?xml version="1.0" ?>
<svg height="300" version="1.1" width="400" xmlns="http://www.w3.org/2000/svg" xmlns:svg="http://www.w3.org/2000/svg">
	<style type="text/css">
		

.x-axis-path, .y-gridline, .x-notch { fill:none; stroke: #a7a9ac; stroke-width:1; }



.y-gridline { stroke-width: 50%; }

.y-axis-path, .y-axis-path2, .x-notch-left, .x-notch-right { display: none;}



.x-axis-label, .data-point-label {font-size: 12px; font-weight:normal; font-family: sans-serif; fill: #58595b; text-anchor:middle;}

.y-axis-label {font-size: 12px; font-family: helvetica; fill: #a7a9ac; text-anchor:end;}



.series-1-line { fill: none; stroke: #bf5004; stroke-width:2; }



.series-2-line { fill: none; stroke: #336699; stroke-width: 2;}

	</style>
	<rect fill="white" height="300" width="400" x="0" y="0"/>
	<g id="grid" transform="translate(30, 30)">
		<g class="x-axis" id="x_axis">
			<path class="x-axis-path" d="M 0 225 L 340 225"/>
			<path class="x-notch-left" d="M 0 225, L 0 235"/>
			<path class="x-notch-right" d="M 340 225, L 340 235"/>
		</g>
		<g class="y-axis" id="y_axis">
			<path class="y-axis-path" d="M 0 225 L 0 0"/>
			<path class="y-axis-path-2" d="M 340 225 L 340 0"/>
			<path class="y-gridline" d="M 0 0 L 340 0"/>
			<text class="y-axis-label" x="-5" y="0">
				55
			</text>
			<path class="y-gridline" d="M 0 37 L 340 37"/>
			<text class="y-axis-label" x="-5" y="37">
				45
			</text>
			<path class="y-gridline" d="M 0 74 L 340 74"/>
			<text class="y-axis-label" x="-5" y="74">
				36
			</text>
			<path class="y-gridline" d="M 0 111 L 340 111"/>
			<text class="y-axis-label" x="-5" y="111">
				27
			</text>
			<path class="y-gridline" d="M 0 148 L 340 148"/>
			<text class="y-axis-label" x="-5" y="148">
				18
			</text>
			<path class="y-gridline" d="M 0 185 L 340 185"/>
			<text class="y-axis-label" x="-5" y="185">
				9
			</text>
		</g>
		<g>
			<path class="series-1-line" d="M 15 184.090909091 L 118 102.272727273 L 221 61.3636363636 L 325 20.4545454545"/>
			<path class="series-2-line" d="M 15 102.272727273 L 118 61.3636363636 L 221 20.4545454545"/>
		</g>
		<text class="x-axis-label" x="15.0" y="240">
			2000
		</text>
		<path class="x-notch" d="M 118.333333333 225 L 118.333333333 230"/>
		<text class="x-axis-label" x="221.666666667" y="240">
			2002
		</text>
		<path class="x-notch" d="M 325.0 225 L 325.0 230"/>
	</g>
</svg>
