<?xml version="1.0" ?>
<svg height="185" version="1.1" width="370" xmlns="http://www.w3.org/2000/svg" xmlns:svg="http://www.w3.org/2000/svg">
	<style type="text/css">
		.y-axis-path, .y-axis-path2, .y-gridline {display:none;}



.x-notch, .x-notch-left, .x-notch-right { stroke: #a7a9ac; }

.x-axis-path { fill:none; stroke: #a7a9ac; stroke-width:1; stroke-linecap:butt; stroke-linejoin: miter; stroke-miterlimit:4; stroke-dasharray:none; stroke-opacity:1 }

.series-0-point { stroke: #e0d1d1; fill: #bf5004; stroke-width: 2px; }



.series-1-point { stroke: #d6d9db; fill: #336699; stroke-width:2px; }



.series-2-point { stroke: #eff5e6; fill: #9ca991; stroke-width: 2px; }





.x-axis-label, .data-point-label {font-size: 12px; font-weight:bold; font-family: sans-serif; fill: #58595b; text-anchor:middle;}



.y-axis-label { display:none;}

	</style>
	<rect fill="white" height="185" width="370" x="0" y="0"/>
	<g id="grid" transform="translate(10, 10)">
		<g class="x-axis" id="x_axis">
			<path class="x-axis-path" d="M 0 150 L 350 150"/>
			<path class="x-notch-left" d="M 0 150, L 0 160"/>
			<path class="x-notch-right" d="M 350 150, L 350 160"/>
		</g>
		<g class="y-axis" id="y_axis">
			<path class="y-axis-path" d="M 0 150 L 0 0"/>
			<path class="y-axis-path-2" d="M 350 150 L 350 0"/>
			<path class="y-gridline" d="M 0 0 L 350 0"/>
			<text class="y-axis-label" x="-5" y="0">
				$8B
			</text>
			<path class="y-gridline" d="M 0 25 L 350 25"/>
			<text class="y-axis-label" x="-5" y="25">
				$6B
			</text>
			<path class="y-gridline" d="M 0 50 L 350 50"/>
			<text class="y-axis-label" x="-5" y="50">
				$5B
			</text>
			<path class="y-gridline" d="M 0 75 L 350 75"/>
			<text class="y-axis-label" x="-5" y="75">
				$4B
			</text>
			<path class="y-gridline" d="M 0 100 L 350 100"/>
			<text class="y-axis-label" x="-5" y="100">
				$2B
			</text>
			<path class="y-gridline" d="M 0 125 L 350 125"/>
			<text class="y-axis-label" x="-5" y="125">
				$1B
			</text>
		</g>
		<path class="x-notch" d="M 174 150 L 174 155"/>
		<rect class="series-0-point" height="136.363636364" width="60" x="57" y="13.6363636364"/>
		<text class="data-point-label" x="87" y="8.63636363636">
			$7B
		</text>
		<rect class="series-0-point" height="2.09035054554" width="60" x="232" y="147.909649454"/>
		<text class="data-point-label" x="262" y="142.909649454">
			$114M
		</text>
		<text class="x-axis-label" x="87" y="165">
			Outstanding Credit
		</text>
		<text class="x-axis-label" x="262" y="165">
			Subsidy
		</text>
	</g>
</svg>
