<?xml version="1.0" ?>
<svg height="350" version="1.1" width="500" xmlns="http://www.w3.org/2000/svg" xmlns:svg="http://www.w3.org/2000/svg">
	<style type="text/css">
		

.x-axis-path, .y-gridline, .x-notch { fill:none; stroke: #a7a9ac; stroke-width:1; }



.y-gridline { stroke-width: 1; }

.y-axis-path, .y-axis-path2, .x-notch-left, .x-notch-right { display: none;}



.x-axis-label, .data-point-label {font-size: 12px; font-weight:normal; font-family: sans-serif; fill: #58595b; text-anchor:middle;}

.y-axis-label {font-size: 12px; font-family: helvetica; fill: #a7a9ac; text-anchor:end;}



.series-1-line { fill: none; stroke: #bf5004; stroke-width:2; }



.series-2-line { fill: none; stroke: #336699; stroke-width: 2;}

	</style>
	<rect fill="white" height="350" width="500" x="0" y="0"/>
	<g id="grid" transform="translate(75, 40)">
		<g class="x-axis" id="x_axis">
			<path class="x-axis-path" d="M 0 255 L 350 255"/>
			<path class="x-notch-left" d="M 0 255, L 0 265"/>
			<path class="x-notch-right" d="M 350 255, L 350 265"/>
		</g>
		<g class="y-axis" id="y_axis">
			<path class="y-axis-path" d="M 0 255 L 0 0"/>
			<path class="y-axis-path-2" d="M 350 255 L 350 0"/>
			<path class="y-gridline" d="M 0 255 L 350 255"/>
			<text class="y-axis-label" x="-5" y="255">
				10
			</text>
			<path class="y-gridline" d="M 0 204 L 350 204"/>
			<text class="y-axis-label" x="-5" y="204">
				20
			</text>
			<path class="y-gridline" d="M 0 153 L 350 153"/>
			<text class="y-axis-label" x="-5" y="153">
				30
			</text>
			<path class="y-gridline" d="M 0 102 L 350 102"/>
			<text class="y-axis-label" x="-5" y="102">
				40
			</text>
			<path class="y-gridline" d="M 0 51 L 350 51"/>
			<text class="y-axis-label" x="-5" y="51">
				50
			</text>
			<path class="y-gridline" d="M 0 0 L 350 0"/>
			<text class="y-axis-label" x="-5" y="0">
				60
			</text>
		</g>
		<g>
			<path class="series-1-line" d="M 35 84.0736256283 L 66 109.53369984 L 97 250.35924734 L 128 236.117961863 L 159 221.566354652 L 190 221.285618353 L 221 74.184548031"/>
			<path class="series-2-line" d="M 283 109.98495574 L 283 109.98495574 L 315 6.2150485419"/>
		</g>
		<text class="x-axis-label" x="35.0" y="270">
			2000
		</text>
		<path class="x-notch" d="M 50.5555555556 255 L 50.5555555556 260"/>
		<text class="x-axis-label" x="66.1111111111" y="270">
			2001
		</text>
		<path class="x-notch" d="M 81.6666666667 255 L 81.6666666667 260"/>
		<text class="x-axis-label" x="97.2222222222" y="270">
			2002
		</text>
		<path class="x-notch" d="M 112.777777778 255 L 112.777777778 260"/>
		<text class="x-axis-label" x="128.333333333" y="270">
			2003
		</text>
		<path class="x-notch" d="M 143.888888889 255 L 143.888888889 260"/>
		<text class="x-axis-label" x="159.444444444" y="270">
			2004
		</text>
		<path class="x-notch" d="M 175.0 255 L 175.0 260"/>
		<text class="x-axis-label" x="190.555555556" y="270">
			2005
		</text>
		<path class="x-notch" d="M 206.111111111 255 L 206.111111111 260"/>
		<text class="x-axis-label" x="221.666666667" y="270">
			2006
		</text>
		<path class="x-notch" d="M 237.222222222 255 L 237.222222222 260"/>
		<text class="x-axis-label" x="252.777777778" y="270">
			2007
		</text>
		<path class="x-notch" d="M 268.333333333 255 L 268.333333333 260"/>
		<text class="x-axis-label" x="283.888888889" y="270">
			2008
		</text>
		<path class="x-notch" d="M 299.444444444 255 L 299.444444444 260"/>
		<text class="x-axis-label" x="315.0" y="270">
			2009
		</text>
	</g>
</svg>
