<?xml version="1.0" ?>
<svg height="300" version="1.1" width="300" xmlns="http://www.w3.org/2000/svg" xmlns:svg="http://www.w3.org/2000/svg">
	<style type="text/css">
		.slice-10 { fill: #385a2a; stroke: #d6d9db; stroke-width:2;}

.slice-9 { fill: #66903d; stroke: #d6d9db; stroke-width:2;}

.slice-8 { fill: #c1d69f; stroke: #d6d9db; stroke-width:2;}

.slice-7 { fill: #79bcab; stroke: #d6d9db; stroke-width:2;}

.slice-6 { fill: #c2e0d5; stroke: #d6d9db; stroke-width:2;}

.slice-5 { fill: #e9ece3; stroke: #d6d9db; stroke-width:2; }

.slice-4 { fill: #bad9e0; stroke: #d6d9db; stroke-width:2;}

.slice-3 { fill: #669eb3; stroke: #d6d9db; stroke-width:2;}

.slice-2 { fill: #2b5b8e; stroke: #d6d9db; stroke-width:2;}

.slice-1{ fill: #072744; stroke: #d6d9db; stroke-width:2;}



.pie-label-right {font-family: sans-serif; font-size: 12px; font-weight: bold; fill: #58595b; text-anchor:start;}

.pie-label-left {font-family:sans-serif; font-size: 12px; font-weight: bold; fill: #58595b; text-anchor:end;}







	</style>
	<rect fill="white" height="300" width="300" x="0" y="0"/>
	<text class="pie-label-left" x="116" y="30">
		<tspan dy="0" x="116.16800261">
			58.7% - 
		</tspan>
	</text>
	<path class="slice-1" d="M 150,150  l 120,0  a120,120 0 1,0 -222.418881832,62.5329724566 z"/>
	<text class="pie-label-left" x="129" y="273">
		<tspan dy="12" x="129.120177513">
			27.2% - 
		</tspan>
	</text>
	<path class="slice-2" d="M 150,150  l -102.418881832,62.5329724566  a120,120 0 0,0 178.525074408,30.2455134741 z"/>
	<text class="pie-label-right" x="256" y="215">
		<tspan dy="12" x="256.370505546">
			10.5% - 
		</tspan>
	</text>
	<path class="slice-3" d="M 150,150  l 76.106192576,92.7784859306  a120,120 0 0,0 40.9447369726,-66.3383669481 z"/>
	<text class="pie-label-right" x="274" y="163">
		<tspan dy="12" x="274.229639079">
			3.5% - 
		</tspan>
	</text>
	<path class="slice-4" d="M 150,150  l 117.050929549,26.4401189826  a120,120 0 0,0 2.94907045142,-26.4401189826 z"/>
</svg>
